# xmcd
#
# Track frame offsets:
#  150
#  14254
#  32528
#  50438
#  62808
#  75666
#  87994
#  98386
#  114040
#  128623
#  143743
#  161996
#  180140
#  195622
#  212868
#  230971
#  247123
#
# Disc length: 3513 seconds
#
# Revision: 0
# Processed by: cddbd v1.5.2PL0 Copyright (c) Steve Scherf et al.
# Submitted via: AltoMP3_Maker 3.0
#
DISCID=da0db711
DTITLE=Roberta Miranda - Boleros
DYEAR=2011
DGENRE=Country
TTITLE0=Deus Como Te Amo
TTITLE1=Eu Te Amo Te Amo Te Amo
TTITLE2=Va Com Deus
TTITLE3=Marcas
TTITLE4=Garcon
TTITLE5=Doi
TTITLE6=Meu Primeiro Amor
TTITLE7=Sol Da Minha Vida
TTITLE8=Duas Tacas
TTITLE9=Mascara
TTITLE10=Se Chama Amor
TTITLE11=Paixao
TTITLE12=Cade Voce
TTITLE13=Um Minuto a Mais
TTITLE14=Sorrir Faz a Vida Valer
TTITLE15=Licao de Vida
TTITLE16=Idolo de Pano
EXTD=
EXTT0=
EXTT1=
EXTT2=
EXTT3=
EXTT4=
EXTT5=
EXTT6=
EXTT7=
EXTT8=
EXTT9=
EXTT10=
EXTT11=
EXTT12=
EXTT13=
EXTT14=
EXTT15=
EXTT16=
PLAYORDER=
